<svg width="24" height="24" viewBox="0 0 24 24" fill="none" xmlns="http://www.w3.org/2000/svg">
<path d="M9.00025 3L15.0002 3M3.00024 6L21.0002 6M19.0002 6L18.299 16.5193C18.1937 18.0975 18.1411 18.8867 17.8003 19.485C17.5002 20.0118 17.0475 20.4353 16.5019 20.6997C15.8822 21 15.0913 21 13.5096 21H10.4909C8.90915 21 8.11828 21 7.49858 20.6997C6.953 20.4353 6.50033 20.0118 6.20023 19.485C5.85936 18.8867 5.80675 18.0975 5.70153 16.5193L5.00024 6M10.0002 10.5L10.0002 15.5M14.0002 10.5L14.0002 15.5" stroke="#060606" stroke-linecap="round" stroke-linejoin="round"/>
</svg>
