<svg width="1323" height="506" viewBox="0 0 1323 506" fill="none" xmlns="http://www.w3.org/2000/svg">
<g clip-path="url(#clip0_480_4064)">
<path d="M0 49.9385H43.0024" stroke="#3F4248" stroke-width="0.277435" stroke-linecap="round"/>
<path d="M56.874 49.9385H99.8764" stroke="#3F4248" stroke-width="0.277435" stroke-linecap="round"/>
<path d="M50.4395 43.002L50.4395 -0.000422716" stroke="#3F4248" stroke-width="0.277435" stroke-linecap="round"/>
<path d="M50.4395 99.877L50.4395 56.8746" stroke="#3F4248" stroke-width="0.277435" stroke-linecap="round"/>
<path d="M113.748 49.9385H156.75" stroke="#3F4248" stroke-width="0.277435" stroke-linecap="round"/>
<path d="M107.312 43.002V-0.000422716" stroke="#3F4248" stroke-width="0.277435" stroke-linecap="round"/>
<path d="M107.312 99.877V56.8746" stroke="#3F4248" stroke-width="0.277435" stroke-linecap="round"/>
<path d="M170.622 49.9385H213.624" stroke="#3F4248" stroke-width="0.277435" stroke-linecap="round"/>
<path d="M164.187 43.002V-0.000422716" stroke="#3F4248" stroke-width="0.277435" stroke-linecap="round"/>
<path d="M164.187 99.877V56.8746" stroke="#3F4248" stroke-width="0.277435" stroke-linecap="round"/>
<path d="M227.497 49.9385H270.499" stroke="#3F4248" stroke-width="0.277435" stroke-linecap="round"/>
<path d="M221.061 43.002V-0.000422716" stroke="#3F4248" stroke-width="0.277435" stroke-linecap="round"/>
<path d="M221.061 99.877V56.8746" stroke="#3F4248" stroke-width="0.277435" stroke-linecap="round"/>
<path d="M284.371 49.9385H327.373" stroke="#3F4248" stroke-width="0.277435" stroke-linecap="round"/>
<path d="M277.936 43.002V-0.000422716" stroke="#3F4248" stroke-width="0.277435" stroke-linecap="round"/>
<path d="M277.936 99.877V56.8746" stroke="#3F4248" stroke-width="0.277435" stroke-linecap="round"/>
<path d="M341.246 49.9385H384.248" stroke="#3F4248" stroke-width="0.277435" stroke-linecap="round"/>
<path d="M334.81 43.002V-0.000422716" stroke="#3F4248" stroke-width="0.277435" stroke-linecap="round"/>
<path d="M334.81 99.877V56.8746" stroke="#3F4248" stroke-width="0.277435" stroke-linecap="round"/>
<path d="M398.119 49.9385H441.122" stroke="#3F4248" stroke-width="0.277435" stroke-linecap="round"/>
<path d="M391.684 43.002V-0.000422716" stroke="#3F4248" stroke-width="0.277435" stroke-linecap="round"/>
<path d="M391.684 99.877V56.8746" stroke="#3F4248" stroke-width="0.277435" stroke-linecap="round"/>
<path d="M454.993 49.9385H497.996" stroke="#3F4248" stroke-width="0.277435" stroke-linecap="round"/>
<path d="M448.558 43.002V-0.000422716" stroke="#3F4248" stroke-width="0.277435" stroke-linecap="round"/>
<path d="M448.558 99.877V56.8746" stroke="#3F4248" stroke-width="0.277435" stroke-linecap="round"/>
<path d="M511.867 49.9385H554.87" stroke="#3F4248" stroke-width="0.277435" stroke-linecap="round"/>
<path d="M505.432 43.002V-0.000422716" stroke="#3F4248" stroke-width="0.277435" stroke-linecap="round"/>
<path d="M505.432 99.877V56.8746" stroke="#3F4248" stroke-width="0.277435" stroke-linecap="round"/>
<path d="M568.742 49.9385H611.745" stroke="#3F4248" stroke-width="0.277435" stroke-linecap="round"/>
<path d="M562.306 43.002V-0.000422716" stroke="#3F4248" stroke-width="0.277435" stroke-linecap="round"/>
<path d="M562.306 99.877V56.8746" stroke="#3F4248" stroke-width="0.277435" stroke-linecap="round"/>
<path d="M625.617 49.9385H668.62" stroke="#3F4248" stroke-width="0.277435" stroke-linecap="round"/>
<path d="M619.181 43.002V-0.000422716" stroke="#3F4248" stroke-width="0.277435" stroke-linecap="round"/>
<path d="M619.181 99.877V56.8746" stroke="#3F4248" stroke-width="0.277435" stroke-linecap="round"/>
<path d="M682.491 49.9385H725.494" stroke="#3F4248" stroke-width="0.277435" stroke-linecap="round"/>
<path d="M676.055 43.002V-0.000422716" stroke="#3F4248" stroke-width="0.277435" stroke-linecap="round"/>
<path d="M676.055 99.877V56.8746" stroke="#3F4248" stroke-width="0.277435" stroke-linecap="round"/>
<path d="M739.365 49.9385H782.368" stroke="#3F4248" stroke-width="0.277435" stroke-linecap="round"/>
<path d="M732.929 43.002V-0.000422716" stroke="#3F4248" stroke-width="0.277435" stroke-linecap="round"/>
<path d="M732.929 99.877V56.8746" stroke="#3F4248" stroke-width="0.277435" stroke-linecap="round"/>
<path d="M796.24 49.9385H839.243" stroke="#3F4248" stroke-width="0.277435" stroke-linecap="round"/>
<path d="M789.804 43.002V-0.000422716" stroke="#3F4248" stroke-width="0.277435" stroke-linecap="round"/>
<path d="M789.804 99.877V56.8746" stroke="#3F4248" stroke-width="0.277435" stroke-linecap="round"/>
<path d="M853.116 49.9385H896.119" stroke="#3F4248" stroke-width="0.277435" stroke-linecap="round"/>
<path d="M846.679 43.002V-0.000422716" stroke="#3F4248" stroke-width="0.277435" stroke-linecap="round"/>
<path d="M846.679 99.877V56.8746" stroke="#3F4248" stroke-width="0.277435" stroke-linecap="round"/>
<path d="M909.989 49.9385H952.992" stroke="#3F4248" stroke-width="0.277435" stroke-linecap="round"/>
<path d="M903.554 43.002V-0.000422716" stroke="#3F4248" stroke-width="0.277435" stroke-linecap="round"/>
<path d="M903.554 99.877V56.8746" stroke="#3F4248" stroke-width="0.277435" stroke-linecap="round"/>
<path d="M966.864 49.9385H1009.87" stroke="#3F4248" stroke-width="0.277435" stroke-linecap="round"/>
<path d="M960.428 43.002V-0.000422716" stroke="#3F4248" stroke-width="0.277435" stroke-linecap="round"/>
<path d="M960.428 99.877V56.8746" stroke="#3F4248" stroke-width="0.277435" stroke-linecap="round"/>
<path d="M1023.74 49.9385H1066.74" stroke="#3F4248" stroke-width="0.277435" stroke-linecap="round"/>
<path d="M1017.3 43.002V-0.000422716" stroke="#3F4248" stroke-width="0.277435" stroke-linecap="round"/>
<path d="M1017.3 99.877V56.8746" stroke="#3F4248" stroke-width="0.277435" stroke-linecap="round"/>
<path d="M1080.61 49.9385H1123.61" stroke="#3F4248" stroke-width="0.277435" stroke-linecap="round"/>
<path d="M1074.18 43.002V-0.000422716" stroke="#3F4248" stroke-width="0.277435" stroke-linecap="round"/>
<path d="M1074.18 99.877V56.8746" stroke="#3F4248" stroke-width="0.277435" stroke-linecap="round"/>
<path d="M1137.49 49.9385H1180.49" stroke="#3F4248" stroke-width="0.277435" stroke-linecap="round"/>
<path d="M1131.05 43.002V-0.000422716" stroke="#3F4248" stroke-width="0.277435" stroke-linecap="round"/>
<path d="M1131.05 99.877V56.8746" stroke="#3F4248" stroke-width="0.277435" stroke-linecap="round"/>
<path d="M1194.36 49.9385H1237.36" stroke="#3F4248" stroke-width="0.277435" stroke-linecap="round"/>
<path d="M1187.93 43.002V-0.000422716" stroke="#3F4248" stroke-width="0.277435" stroke-linecap="round"/>
<path d="M1187.93 99.877V56.8746" stroke="#3F4248" stroke-width="0.277435" stroke-linecap="round"/>
<path d="M1251.24 49.9385H1294.24" stroke="#3F4248" stroke-width="0.277435" stroke-linecap="round"/>
<path d="M1244.8 43.002V-0.000422716" stroke="#3F4248" stroke-width="0.277435" stroke-linecap="round"/>
<path d="M1244.8 99.877V56.8746" stroke="#3F4248" stroke-width="0.277435" stroke-linecap="round"/>
<path d="M1308.11 49.9385H1351.11" stroke="#3F4248" stroke-width="0.277435" stroke-linecap="round"/>
<path d="M1301.67 43.002V-0.000422716" stroke="#3F4248" stroke-width="0.277435" stroke-linecap="round"/>
<path d="M1301.67 99.877V56.8746" stroke="#3F4248" stroke-width="0.277435" stroke-linecap="round"/>
<path d="M0 107.25H43.0024" stroke="#3F4248" stroke-width="0.277435" stroke-linecap="round"/>
<path d="M56.874 107.25H99.8764" stroke="#3F4248" stroke-width="0.277435" stroke-linecap="round"/>
<path d="M50.4395 114.187L50.4395 157.189" stroke="#3F4248" stroke-width="0.277435" stroke-linecap="round"/>
<path d="M113.749 107.25H156.751" stroke="#3F4248" stroke-width="0.277435" stroke-linecap="round"/>
<path d="M107.312 114.187V157.189" stroke="#3F4248" stroke-width="0.277435" stroke-linecap="round"/>
<path d="M170.623 107.25H213.625" stroke="#3F4248" stroke-width="0.277435" stroke-linecap="round"/>
<path d="M164.187 114.187V157.189" stroke="#3F4248" stroke-width="0.277435" stroke-linecap="round"/>
<path d="M227.498 107.25H270.5" stroke="#3F4248" stroke-width="0.277435" stroke-linecap="round"/>
<path d="M221.062 114.187V157.189" stroke="#3F4248" stroke-width="0.277435" stroke-linecap="round"/>
<path d="M284.372 107.25H327.374" stroke="#3F4248" stroke-width="0.277435" stroke-linecap="round"/>
<path d="M277.937 114.187V157.189" stroke="#3F4248" stroke-width="0.277435" stroke-linecap="round"/>
<path d="M341.246 107.25H384.248" stroke="#3F4248" stroke-width="0.277435" stroke-linecap="round"/>
<path d="M334.81 114.187V157.189" stroke="#3F4248" stroke-width="0.277435" stroke-linecap="round"/>
<path d="M398.12 107.25H441.122" stroke="#3F4248" stroke-width="0.277435" stroke-linecap="round"/>
<path d="M391.685 114.187V157.189" stroke="#3F4248" stroke-width="0.277435" stroke-linecap="round"/>
<path d="M454.994 107.25H497.997" stroke="#3F4248" stroke-width="0.277435" stroke-linecap="round"/>
<path d="M448.559 114.187V157.189" stroke="#3F4248" stroke-width="0.277435" stroke-linecap="round"/>
<path d="M511.868 107.25H554.871" stroke="#3F4248" stroke-width="0.277435" stroke-linecap="round"/>
<path d="M505.433 114.187V157.189" stroke="#3F4248" stroke-width="0.277435" stroke-linecap="round"/>
<path d="M568.744 107.25H611.747" stroke="#3F4248" stroke-width="0.277435" stroke-linecap="round"/>
<path d="M562.307 114.187V157.189" stroke="#3F4248" stroke-width="0.277435" stroke-linecap="round"/>
<path d="M625.617 107.25H668.62" stroke="#3F4248" stroke-width="0.277435" stroke-linecap="round"/>
<path d="M619.182 114.187V157.189" stroke="#3F4248" stroke-width="0.277435" stroke-linecap="round"/>
<path d="M682.492 107.25H725.495" stroke="#3F4248" stroke-width="0.277435" stroke-linecap="round"/>
<path d="M676.056 114.187V157.189" stroke="#3F4248" stroke-width="0.277435" stroke-linecap="round"/>
<path d="M739.366 107.25H782.369" stroke="#3F4248" stroke-width="0.277435" stroke-linecap="round"/>
<path d="M732.93 114.187V157.189" stroke="#3F4248" stroke-width="0.277435" stroke-linecap="round"/>
<path d="M796.241 107.25H839.244" stroke="#3F4248" stroke-width="0.277435" stroke-linecap="round"/>
<path d="M789.805 114.187V157.189" stroke="#3F4248" stroke-width="0.277435" stroke-linecap="round"/>
<path d="M853.117 107.25H896.12" stroke="#3F4248" stroke-width="0.277435" stroke-linecap="round"/>
<path d="M846.68 114.187V157.189" stroke="#3F4248" stroke-width="0.277435" stroke-linecap="round"/>
<path d="M909.99 107.25H952.993" stroke="#3F4248" stroke-width="0.277435" stroke-linecap="round"/>
<path d="M903.555 114.187V157.189" stroke="#3F4248" stroke-width="0.277435" stroke-linecap="round"/>
<path d="M966.865 107.25H1009.87" stroke="#3F4248" stroke-width="0.277435" stroke-linecap="round"/>
<path d="M960.429 114.187V157.189" stroke="#3F4248" stroke-width="0.277435" stroke-linecap="round"/>
<path d="M1023.74 107.25H1066.74" stroke="#3F4248" stroke-width="0.277435" stroke-linecap="round"/>
<path d="M1017.3 114.187V157.189" stroke="#3F4248" stroke-width="0.277435" stroke-linecap="round"/>
<path d="M1080.61 107.25H1123.62" stroke="#3F4248" stroke-width="0.277435" stroke-linecap="round"/>
<path d="M1074.18 114.187V157.189" stroke="#3F4248" stroke-width="0.277435" stroke-linecap="round"/>
<path d="M1137.49 107.25H1180.49" stroke="#3F4248" stroke-width="0.277435" stroke-linecap="round"/>
<path d="M1131.05 114.187V157.189" stroke="#3F4248" stroke-width="0.277435" stroke-linecap="round"/>
<path d="M1194.36 107.25H1237.37" stroke="#3F4248" stroke-width="0.277435" stroke-linecap="round"/>
<path d="M1187.93 114.187V157.189" stroke="#3F4248" stroke-width="0.277435" stroke-linecap="round"/>
<path d="M1251.24 107.25H1294.24" stroke="#3F4248" stroke-width="0.277435" stroke-linecap="round"/>
<path d="M1244.8 114.187V157.189" stroke="#3F4248" stroke-width="0.277435" stroke-linecap="round"/>
<path d="M1308.11 107.25H1351.11" stroke="#3F4248" stroke-width="0.277435" stroke-linecap="round"/>
<path d="M1301.67 114.187V157.189" stroke="#3F4248" stroke-width="0.277435" stroke-linecap="round"/>
<path d="M0 164.562H43.0024" stroke="#3F4248" stroke-width="0.277435" stroke-linecap="round"/>
<path d="M56.874 164.562H99.8764" stroke="#3F4248" stroke-width="0.277435" stroke-linecap="round"/>
<path d="M50.4395 171.499L50.4395 214.501" stroke="#3F4248" stroke-width="0.277435" stroke-linecap="round"/>
<path d="M113.749 164.563H156.751" stroke="#3F4248" stroke-width="0.277435" stroke-linecap="round"/>
<path d="M107.312 171.499V214.501" stroke="#3F4248" stroke-width="0.277435" stroke-linecap="round"/>
<path d="M170.623 164.563H213.625" stroke="#3F4248" stroke-width="0.277435" stroke-linecap="round"/>
<path d="M164.187 171.499V214.501" stroke="#3F4248" stroke-width="0.277435" stroke-linecap="round"/>
<path d="M227.498 164.563H270.5" stroke="#3F4248" stroke-width="0.277435" stroke-linecap="round"/>
<path d="M221.062 171.499V214.501" stroke="#3F4248" stroke-width="0.277435" stroke-linecap="round"/>
<path d="M284.372 164.563H327.374" stroke="#3F4248" stroke-width="0.277435" stroke-linecap="round"/>
<path d="M277.937 171.499V214.501" stroke="#3F4248" stroke-width="0.277435" stroke-linecap="round"/>
<path d="M341.246 164.563H384.248" stroke="#3F4248" stroke-width="0.277435" stroke-linecap="round"/>
<path d="M334.81 171.499V214.501" stroke="#3F4248" stroke-width="0.277435" stroke-linecap="round"/>
<path d="M398.12 164.563H441.122" stroke="#3F4248" stroke-width="0.277435" stroke-linecap="round"/>
<path d="M391.685 171.499V214.501" stroke="#3F4248" stroke-width="0.277435" stroke-linecap="round"/>
<path d="M454.993 164.563H497.996" stroke="#3F4248" stroke-width="0.277435" stroke-linecap="round"/>
<path d="M448.558 171.499V214.501" stroke="#3F4248" stroke-width="0.277435" stroke-linecap="round"/>
<path d="M511.867 164.563H554.87" stroke="#3F4248" stroke-width="0.277435" stroke-linecap="round"/>
<path d="M505.432 171.499V214.501" stroke="#3F4248" stroke-width="0.277435" stroke-linecap="round"/>
<path d="M568.743 164.563H611.746" stroke="#3F4248" stroke-width="0.277435" stroke-linecap="round"/>
<path d="M562.306 171.499V214.501" stroke="#3F4248" stroke-width="0.277435" stroke-linecap="round"/>
<path d="M625.617 164.563H668.62" stroke="#3F4248" stroke-width="0.277435" stroke-linecap="round"/>
<path d="M619.182 171.499V214.501" stroke="#3F4248" stroke-width="0.277435" stroke-linecap="round"/>
<path d="M682.492 164.563H725.495" stroke="#3F4248" stroke-width="0.277435" stroke-linecap="round"/>
<path d="M676.056 171.499V214.501" stroke="#3F4248" stroke-width="0.277435" stroke-linecap="round"/>
<path d="M739.366 164.563H782.369" stroke="#3F4248" stroke-width="0.277435" stroke-linecap="round"/>
<path d="M732.93 171.499V214.501" stroke="#3F4248" stroke-width="0.277435" stroke-linecap="round"/>
<path d="M796.241 164.563H839.244" stroke="#3F4248" stroke-width="0.277435" stroke-linecap="round"/>
<path d="M789.805 171.499V214.501" stroke="#3F4248" stroke-width="0.277435" stroke-linecap="round"/>
<path d="M853.117 164.563H896.12" stroke="#3F4248" stroke-width="0.277435" stroke-linecap="round"/>
<path d="M846.68 171.499V214.501" stroke="#3F4248" stroke-width="0.277435" stroke-linecap="round"/>
<path d="M909.99 164.563H952.993" stroke="#3F4248" stroke-width="0.277435" stroke-linecap="round"/>
<path d="M903.555 171.499V214.501" stroke="#3F4248" stroke-width="0.277435" stroke-linecap="round"/>
<path d="M966.865 164.563H1009.87" stroke="#3F4248" stroke-width="0.277435" stroke-linecap="round"/>
<path d="M960.429 171.499V214.501" stroke="#3F4248" stroke-width="0.277435" stroke-linecap="round"/>
<path d="M1023.74 164.563H1066.74" stroke="#3F4248" stroke-width="0.277435" stroke-linecap="round"/>
<path d="M1017.3 171.499V214.501" stroke="#3F4248" stroke-width="0.277435" stroke-linecap="round"/>
<path d="M1080.61 164.563H1123.61" stroke="#3F4248" stroke-width="0.277435" stroke-linecap="round"/>
<path d="M1074.18 171.499V214.501" stroke="#3F4248" stroke-width="0.277435" stroke-linecap="round"/>
<path d="M1137.49 164.563H1180.49" stroke="#3F4248" stroke-width="0.277435" stroke-linecap="round"/>
<path d="M1131.05 171.499V214.501" stroke="#3F4248" stroke-width="0.277435" stroke-linecap="round"/>
<path d="M1194.36 164.563H1237.37" stroke="#3F4248" stroke-width="0.277435" stroke-linecap="round"/>
<path d="M1187.93 171.499V214.501" stroke="#3F4248" stroke-width="0.277435" stroke-linecap="round"/>
<path d="M1251.24 164.563H1294.24" stroke="#3F4248" stroke-width="0.277435" stroke-linecap="round"/>
<path d="M1244.8 171.499V214.501" stroke="#3F4248" stroke-width="0.277435" stroke-linecap="round"/>
<path d="M1308.11 164.563H1351.11" stroke="#3F4248" stroke-width="0.277435" stroke-linecap="round"/>
<path d="M1301.67 171.499V214.501" stroke="#3F4248" stroke-width="0.277435" stroke-linecap="round"/>
<path d="M0 221.874H43.0024" stroke="#3F4248" stroke-width="0.277435" stroke-linecap="round"/>
<path d="M56.874 221.874H99.8764" stroke="#3F4248" stroke-width="0.277435" stroke-linecap="round"/>
<path d="M50.4395 228.811L50.4395 271.813" stroke="#3F4248" stroke-width="0.277435" stroke-linecap="round"/>
<path d="M113.749 221.874H156.751" stroke="#3F4248" stroke-width="0.277435" stroke-linecap="round"/>
<path d="M107.312 228.811V271.813" stroke="#3F4248" stroke-width="0.277435" stroke-linecap="round"/>
<path d="M170.623 221.874H213.625" stroke="#3F4248" stroke-width="0.277435" stroke-linecap="round"/>
<path d="M164.187 228.811V271.813" stroke="#3F4248" stroke-width="0.277435" stroke-linecap="round"/>
<path d="M227.498 221.874H270.5" stroke="#3F4248" stroke-width="0.277435" stroke-linecap="round"/>
<path d="M221.062 228.811V271.813" stroke="#3F4248" stroke-width="0.277435" stroke-linecap="round"/>
<path d="M284.372 221.874H327.374" stroke="#3F4248" stroke-width="0.277435" stroke-linecap="round"/>
<path d="M277.937 228.811V271.813" stroke="#3F4248" stroke-width="0.277435" stroke-linecap="round"/>
<path d="M341.246 221.874H384.248" stroke="#3F4248" stroke-width="0.277435" stroke-linecap="round"/>
<path d="M334.81 228.811V271.813" stroke="#3F4248" stroke-width="0.277435" stroke-linecap="round"/>
<path d="M398.12 221.874H441.122" stroke="#3F4248" stroke-width="0.277435" stroke-linecap="round"/>
<path d="M391.685 228.811V271.813" stroke="#3F4248" stroke-width="0.277435" stroke-linecap="round"/>
<path d="M454.994 221.874H497.997" stroke="#3F4248" stroke-width="0.277435" stroke-linecap="round"/>
<path d="M448.559 228.811V271.813" stroke="#3F4248" stroke-width="0.277435" stroke-linecap="round"/>
<path d="M511.868 221.874H554.871" stroke="#3F4248" stroke-width="0.277435" stroke-linecap="round"/>
<path d="M505.433 228.811V271.813" stroke="#3F4248" stroke-width="0.277435" stroke-linecap="round"/>
<path d="M568.744 221.874H611.747" stroke="#3F4248" stroke-width="0.277435" stroke-linecap="round"/>
<path d="M562.307 228.811V271.813" stroke="#3F4248" stroke-width="0.277435" stroke-linecap="round"/>
<path d="M625.617 221.874H668.62" stroke="#3F4248" stroke-width="0.277435" stroke-linecap="round"/>
<path d="M619.182 228.811V271.813" stroke="#3F4248" stroke-width="0.277435" stroke-linecap="round"/>
<path d="M682.492 221.874H725.495" stroke="#3F4248" stroke-width="0.277435" stroke-linecap="round"/>
<path d="M676.056 228.811V271.813" stroke="#3F4248" stroke-width="0.277435" stroke-linecap="round"/>
<path d="M739.366 221.874H782.369" stroke="#3F4248" stroke-width="0.277435" stroke-linecap="round"/>
<path d="M732.93 228.811V271.813" stroke="#3F4248" stroke-width="0.277435" stroke-linecap="round"/>
<path d="M796.241 221.874H839.244" stroke="#3F4248" stroke-width="0.277435" stroke-linecap="round"/>
<path d="M789.805 228.811V271.813" stroke="#3F4248" stroke-width="0.277435" stroke-linecap="round"/>
<path d="M853.117 221.874H896.12" stroke="#3F4248" stroke-width="0.277435" stroke-linecap="round"/>
<path d="M846.68 228.811V271.813" stroke="#3F4248" stroke-width="0.277435" stroke-linecap="round"/>
<path d="M909.99 221.874H952.993" stroke="#3F4248" stroke-width="0.277435" stroke-linecap="round"/>
<path d="M903.555 228.811V271.813" stroke="#3F4248" stroke-width="0.277435" stroke-linecap="round"/>
<path d="M966.865 221.874H1009.87" stroke="#3F4248" stroke-width="0.277435" stroke-linecap="round"/>
<path d="M960.429 228.811V271.813" stroke="#3F4248" stroke-width="0.277435" stroke-linecap="round"/>
<path d="M1023.74 221.874H1066.74" stroke="#3F4248" stroke-width="0.277435" stroke-linecap="round"/>
<path d="M1017.3 228.811V271.813" stroke="#3F4248" stroke-width="0.277435" stroke-linecap="round"/>
<path d="M1080.61 221.874H1123.62" stroke="#3F4248" stroke-width="0.277435" stroke-linecap="round"/>
<path d="M1074.18 228.811V271.813" stroke="#3F4248" stroke-width="0.277435" stroke-linecap="round"/>
<path d="M1137.49 221.874H1180.49" stroke="#3F4248" stroke-width="0.277435" stroke-linecap="round"/>
<path d="M1131.05 228.811V271.813" stroke="#3F4248" stroke-width="0.277435" stroke-linecap="round"/>
<path d="M1194.36 221.874H1237.37" stroke="#3F4248" stroke-width="0.277435" stroke-linecap="round"/>
<path d="M1187.93 228.811V271.813" stroke="#3F4248" stroke-width="0.277435" stroke-linecap="round"/>
<path d="M1251.24 221.874H1294.24" stroke="#3F4248" stroke-width="0.277435" stroke-linecap="round"/>
<path d="M1244.8 228.811V271.813" stroke="#3F4248" stroke-width="0.277435" stroke-linecap="round"/>
<path d="M1308.11 221.874H1351.11" stroke="#3F4248" stroke-width="0.277435" stroke-linecap="round"/>
<path d="M1301.67 228.811V271.813" stroke="#3F4248" stroke-width="0.277435" stroke-linecap="round"/>
<path d="M0 279.187H43.0024" stroke="#3F4248" stroke-width="0.277435" stroke-linecap="round"/>
<path d="M56.874 279.187H99.8764" stroke="#3F4248" stroke-width="0.277435" stroke-linecap="round"/>
<path d="M50.4395 286.123L50.4395 329.125" stroke="#3F4248" stroke-width="0.277435" stroke-linecap="round"/>
<path d="M113.749 279.187H156.751" stroke="#3F4248" stroke-width="0.277435" stroke-linecap="round"/>
<path d="M107.312 286.123V329.125" stroke="#3F4248" stroke-width="0.277435" stroke-linecap="round"/>
<path d="M170.623 279.187H213.625" stroke="#3F4248" stroke-width="0.277435" stroke-linecap="round"/>
<path d="M164.187 286.123V329.125" stroke="#3F4248" stroke-width="0.277435" stroke-linecap="round"/>
<path d="M227.498 279.187H270.5" stroke="#3F4248" stroke-width="0.277435" stroke-linecap="round"/>
<path d="M221.062 286.123V329.125" stroke="#3F4248" stroke-width="0.277435" stroke-linecap="round"/>
<path d="M284.372 279.187H327.374" stroke="#3F4248" stroke-width="0.277435" stroke-linecap="round"/>
<path d="M277.937 286.123V329.125" stroke="#3F4248" stroke-width="0.277435" stroke-linecap="round"/>
<path d="M341.246 279.187H384.248" stroke="#3F4248" stroke-width="0.277435" stroke-linecap="round"/>
<path d="M334.81 286.123V329.125" stroke="#3F4248" stroke-width="0.277435" stroke-linecap="round"/>
<path d="M398.12 279.187H441.122" stroke="#3F4248" stroke-width="0.277435" stroke-linecap="round"/>
<path d="M391.685 286.123V329.125" stroke="#3F4248" stroke-width="0.277435" stroke-linecap="round"/>
<path d="M454.994 279.187H497.997" stroke="#3F4248" stroke-width="0.277435" stroke-linecap="round"/>
<path d="M448.559 286.123V329.125" stroke="#3F4248" stroke-width="0.277435" stroke-linecap="round"/>
<path d="M511.868 279.187H554.871" stroke="#3F4248" stroke-width="0.277435" stroke-linecap="round"/>
<path d="M505.433 286.123V329.125" stroke="#3F4248" stroke-width="0.277435" stroke-linecap="round"/>
<path d="M568.744 279.187H611.747" stroke="#3F4248" stroke-width="0.277435" stroke-linecap="round"/>
<path d="M562.307 286.123V329.125" stroke="#3F4248" stroke-width="0.277435" stroke-linecap="round"/>
<path d="M625.617 279.187H668.62" stroke="#3F4248" stroke-width="0.277435" stroke-linecap="round"/>
<path d="M619.182 286.123V329.125" stroke="#3F4248" stroke-width="0.277435" stroke-linecap="round"/>
<path d="M682.492 279.187H725.495" stroke="#3F4248" stroke-width="0.277435" stroke-linecap="round"/>
<path d="M676.056 286.123V329.125" stroke="#3F4248" stroke-width="0.277435" stroke-linecap="round"/>
<path d="M739.366 279.187H782.369" stroke="#3F4248" stroke-width="0.277435" stroke-linecap="round"/>
<path d="M732.93 286.123V329.125" stroke="#3F4248" stroke-width="0.277435" stroke-linecap="round"/>
<path d="M796.241 279.187H839.244" stroke="#3F4248" stroke-width="0.277435" stroke-linecap="round"/>
<path d="M789.805 286.123V329.125" stroke="#3F4248" stroke-width="0.277435" stroke-linecap="round"/>
<path d="M853.117 279.187H896.12" stroke="#3F4248" stroke-width="0.277435" stroke-linecap="round"/>
<path d="M846.68 286.123V329.125" stroke="#3F4248" stroke-width="0.277435" stroke-linecap="round"/>
<path d="M909.99 279.187H952.993" stroke="#3F4248" stroke-width="0.277435" stroke-linecap="round"/>
<path d="M903.555 286.123V329.125" stroke="#3F4248" stroke-width="0.277435" stroke-linecap="round"/>
<path d="M966.865 279.187H1009.87" stroke="#3F4248" stroke-width="0.277435" stroke-linecap="round"/>
<path d="M960.429 286.123V329.125" stroke="#3F4248" stroke-width="0.277435" stroke-linecap="round"/>
<path d="M1023.74 279.187H1066.74" stroke="#3F4248" stroke-width="0.277435" stroke-linecap="round"/>
<path d="M1017.3 286.123V329.125" stroke="#3F4248" stroke-width="0.277435" stroke-linecap="round"/>
<path d="M1080.61 279.187H1123.62" stroke="#3F4248" stroke-width="0.277435" stroke-linecap="round"/>
<path d="M1074.18 286.123V329.125" stroke="#3F4248" stroke-width="0.277435" stroke-linecap="round"/>
<path d="M1137.49 279.187H1180.49" stroke="#3F4248" stroke-width="0.277435" stroke-linecap="round"/>
<path d="M1131.05 286.123V329.125" stroke="#3F4248" stroke-width="0.277435" stroke-linecap="round"/>
<path d="M1194.36 279.187H1237.37" stroke="#3F4248" stroke-width="0.277435" stroke-linecap="round"/>
<path d="M1187.93 286.123V329.125" stroke="#3F4248" stroke-width="0.277435" stroke-linecap="round"/>
<path d="M1251.24 279.187H1294.24" stroke="#3F4248" stroke-width="0.277435" stroke-linecap="round"/>
<path d="M1244.8 286.123V329.125" stroke="#3F4248" stroke-width="0.277435" stroke-linecap="round"/>
<path d="M1308.11 279.187H1351.11" stroke="#3F4248" stroke-width="0.277435" stroke-linecap="round"/>
<path d="M1301.67 286.123V329.125" stroke="#3F4248" stroke-width="0.277435" stroke-linecap="round"/>
<path d="M0 336.498H43.0024" stroke="#3F4248" stroke-width="0.277435" stroke-linecap="round"/>
<path d="M56.874 336.498H99.8764" stroke="#3F4248" stroke-width="0.277435" stroke-linecap="round"/>
<path d="M50.4395 343.435L50.4395 386.437" stroke="#3F4248" stroke-width="0.277435" stroke-linecap="round"/>
<path d="M113.749 336.498H156.751" stroke="#3F4248" stroke-width="0.277435" stroke-linecap="round"/>
<path d="M107.312 343.435V386.437" stroke="#3F4248" stroke-width="0.277435" stroke-linecap="round"/>
<path d="M170.623 336.498H213.625" stroke="#3F4248" stroke-width="0.277435" stroke-linecap="round"/>
<path d="M164.187 343.435V386.437" stroke="#3F4248" stroke-width="0.277435" stroke-linecap="round"/>
<path d="M227.498 336.498H270.5" stroke="#3F4248" stroke-width="0.277435" stroke-linecap="round"/>
<path d="M221.062 343.435V386.437" stroke="#3F4248" stroke-width="0.277435" stroke-linecap="round"/>
<path d="M284.372 336.498H327.374" stroke="#3F4248" stroke-width="0.277435" stroke-linecap="round"/>
<path d="M277.937 343.435V386.437" stroke="#3F4248" stroke-width="0.277435" stroke-linecap="round"/>
<path d="M341.246 336.498H384.248" stroke="#3F4248" stroke-width="0.277435" stroke-linecap="round"/>
<path d="M334.81 343.435V386.437" stroke="#3F4248" stroke-width="0.277435" stroke-linecap="round"/>
<path d="M398.12 336.498H441.122" stroke="#3F4248" stroke-width="0.277435" stroke-linecap="round"/>
<path d="M391.685 343.435V386.437" stroke="#3F4248" stroke-width="0.277435" stroke-linecap="round"/>
<path d="M454.994 336.498H497.997" stroke="#3F4248" stroke-width="0.277435" stroke-linecap="round"/>
<path d="M448.559 343.435V386.437" stroke="#3F4248" stroke-width="0.277435" stroke-linecap="round"/>
<path d="M511.868 336.498H554.871" stroke="#3F4248" stroke-width="0.277435" stroke-linecap="round"/>
<path d="M505.433 343.435V386.437" stroke="#3F4248" stroke-width="0.277435" stroke-linecap="round"/>
<path d="M568.744 336.498H611.747" stroke="#3F4248" stroke-width="0.277435" stroke-linecap="round"/>
<path d="M562.307 343.435V386.437" stroke="#3F4248" stroke-width="0.277435" stroke-linecap="round"/>
<path d="M625.617 336.498H668.62" stroke="#3F4248" stroke-width="0.277435" stroke-linecap="round"/>
<path d="M619.182 343.435V386.437" stroke="#3F4248" stroke-width="0.277435" stroke-linecap="round"/>
<path d="M682.492 336.498H725.495" stroke="#3F4248" stroke-width="0.277435" stroke-linecap="round"/>
<path d="M676.056 343.435V386.437" stroke="#3F4248" stroke-width="0.277435" stroke-linecap="round"/>
<path d="M739.366 336.498H782.369" stroke="#3F4248" stroke-width="0.277435" stroke-linecap="round"/>
<path d="M732.93 343.435V386.437" stroke="#3F4248" stroke-width="0.277435" stroke-linecap="round"/>
<path d="M796.241 336.498H839.244" stroke="#3F4248" stroke-width="0.277435" stroke-linecap="round"/>
<path d="M789.805 343.435V386.437" stroke="#3F4248" stroke-width="0.277435" stroke-linecap="round"/>
<path d="M853.117 336.498H896.12" stroke="#3F4248" stroke-width="0.277435" stroke-linecap="round"/>
<path d="M846.68 343.435V386.437" stroke="#3F4248" stroke-width="0.277435" stroke-linecap="round"/>
<path d="M909.99 336.498H952.993" stroke="#3F4248" stroke-width="0.277435" stroke-linecap="round"/>
<path d="M903.555 343.435V386.437" stroke="#3F4248" stroke-width="0.277435" stroke-linecap="round"/>
<path d="M966.865 336.498H1009.87" stroke="#3F4248" stroke-width="0.277435" stroke-linecap="round"/>
<path d="M960.429 343.435V386.437" stroke="#3F4248" stroke-width="0.277435" stroke-linecap="round"/>
<path d="M1023.74 336.498H1066.74" stroke="#3F4248" stroke-width="0.277435" stroke-linecap="round"/>
<path d="M1017.3 343.435V386.437" stroke="#3F4248" stroke-width="0.277435" stroke-linecap="round"/>
<path d="M1080.61 336.498H1123.62" stroke="#3F4248" stroke-width="0.277435" stroke-linecap="round"/>
<path d="M1074.18 343.435V386.437" stroke="#3F4248" stroke-width="0.277435" stroke-linecap="round"/>
<path d="M1137.49 336.498H1180.49" stroke="#3F4248" stroke-width="0.277435" stroke-linecap="round"/>
<path d="M1131.05 343.435V386.437" stroke="#3F4248" stroke-width="0.277435" stroke-linecap="round"/>
<path d="M1194.36 336.498H1237.37" stroke="#3F4248" stroke-width="0.277435" stroke-linecap="round"/>
<path d="M1187.93 343.435V386.437" stroke="#3F4248" stroke-width="0.277435" stroke-linecap="round"/>
<path d="M1251.24 336.498H1294.24" stroke="#3F4248" stroke-width="0.277435" stroke-linecap="round"/>
<path d="M1244.8 343.435V386.437" stroke="#3F4248" stroke-width="0.277435" stroke-linecap="round"/>
<path d="M1308.11 336.498H1351.11" stroke="#3F4248" stroke-width="0.277435" stroke-linecap="round"/>
<path d="M1301.67 343.435V386.437" stroke="#3F4248" stroke-width="0.277435" stroke-linecap="round"/>
<path d="M0 393.81H43.0024" stroke="#3F4248" stroke-width="0.277435" stroke-linecap="round"/>
<path d="M56.874 393.81H99.8764" stroke="#3F4248" stroke-width="0.277435" stroke-linecap="round"/>
<path d="M50.4395 400.746L50.4395 443.748" stroke="#3F4248" stroke-width="0.277435" stroke-linecap="round"/>
<path d="M113.749 393.81H156.751" stroke="#3F4248" stroke-width="0.277435" stroke-linecap="round"/>
<path d="M107.312 400.746V443.748" stroke="#3F4248" stroke-width="0.277435" stroke-linecap="round"/>
<path d="M170.623 393.81H213.625" stroke="#3F4248" stroke-width="0.277435" stroke-linecap="round"/>
<path d="M164.187 400.746V443.748" stroke="#3F4248" stroke-width="0.277435" stroke-linecap="round"/>
<path d="M227.498 393.81H270.5" stroke="#3F4248" stroke-width="0.277435" stroke-linecap="round"/>
<path d="M221.062 400.746V443.748" stroke="#3F4248" stroke-width="0.277435" stroke-linecap="round"/>
<path d="M284.372 393.81H327.374" stroke="#3F4248" stroke-width="0.277435" stroke-linecap="round"/>
<path d="M277.937 400.746V443.748" stroke="#3F4248" stroke-width="0.277435" stroke-linecap="round"/>
<path d="M341.246 393.81H384.248" stroke="#3F4248" stroke-width="0.277435" stroke-linecap="round"/>
<path d="M334.81 400.746V443.748" stroke="#3F4248" stroke-width="0.277435" stroke-linecap="round"/>
<path d="M398.12 393.81H441.122" stroke="#3F4248" stroke-width="0.277435" stroke-linecap="round"/>
<path d="M391.685 400.746V443.748" stroke="#3F4248" stroke-width="0.277435" stroke-linecap="round"/>
<path d="M454.993 393.81H497.996" stroke="#3F4248" stroke-width="0.277435" stroke-linecap="round"/>
<path d="M448.558 400.746V443.748" stroke="#3F4248" stroke-width="0.277435" stroke-linecap="round"/>
<path d="M511.867 393.81H554.87" stroke="#3F4248" stroke-width="0.277435" stroke-linecap="round"/>
<path d="M505.432 400.746V443.748" stroke="#3F4248" stroke-width="0.277435" stroke-linecap="round"/>
<path d="M568.743 393.81H611.746" stroke="#3F4248" stroke-width="0.277435" stroke-linecap="round"/>
<path d="M562.306 400.746V443.748" stroke="#3F4248" stroke-width="0.277435" stroke-linecap="round"/>
<path d="M625.617 393.81H668.62" stroke="#3F4248" stroke-width="0.277435" stroke-linecap="round"/>
<path d="M619.182 400.746V443.748" stroke="#3F4248" stroke-width="0.277435" stroke-linecap="round"/>
<path d="M682.492 393.81H725.495" stroke="#3F4248" stroke-width="0.277435" stroke-linecap="round"/>
<path d="M676.056 400.746V443.748" stroke="#3F4248" stroke-width="0.277435" stroke-linecap="round"/>
<path d="M739.366 393.81H782.369" stroke="#3F4248" stroke-width="0.277435" stroke-linecap="round"/>
<path d="M732.93 400.746V443.748" stroke="#3F4248" stroke-width="0.277435" stroke-linecap="round"/>
<path d="M796.241 393.81H839.244" stroke="#3F4248" stroke-width="0.277435" stroke-linecap="round"/>
<path d="M789.805 400.746V443.748" stroke="#3F4248" stroke-width="0.277435" stroke-linecap="round"/>
<path d="M853.117 393.81H896.12" stroke="#3F4248" stroke-width="0.277435" stroke-linecap="round"/>
<path d="M846.68 400.746V443.748" stroke="#3F4248" stroke-width="0.277435" stroke-linecap="round"/>
<path d="M909.99 393.81H952.993" stroke="#3F4248" stroke-width="0.277435" stroke-linecap="round"/>
<path d="M903.555 400.746V443.748" stroke="#3F4248" stroke-width="0.277435" stroke-linecap="round"/>
<path d="M966.865 393.81H1009.87" stroke="#3F4248" stroke-width="0.277435" stroke-linecap="round"/>
<path d="M960.429 400.746V443.748" stroke="#3F4248" stroke-width="0.277435" stroke-linecap="round"/>
<path d="M1023.74 393.81H1066.74" stroke="#3F4248" stroke-width="0.277435" stroke-linecap="round"/>
<path d="M1017.3 400.746V443.748" stroke="#3F4248" stroke-width="0.277435" stroke-linecap="round"/>
<path d="M1080.61 393.81H1123.61" stroke="#3F4248" stroke-width="0.277435" stroke-linecap="round"/>
<path d="M1074.18 400.746V443.748" stroke="#3F4248" stroke-width="0.277435" stroke-linecap="round"/>
<path d="M1137.49 393.81H1180.49" stroke="#3F4248" stroke-width="0.277435" stroke-linecap="round"/>
<path d="M1131.05 400.746V443.748" stroke="#3F4248" stroke-width="0.277435" stroke-linecap="round"/>
<path d="M1194.36 393.81H1237.37" stroke="#3F4248" stroke-width="0.277435" stroke-linecap="round"/>
<path d="M1187.93 400.746V443.748" stroke="#3F4248" stroke-width="0.277435" stroke-linecap="round"/>
<path d="M1251.24 393.81H1294.24" stroke="#3F4248" stroke-width="0.277435" stroke-linecap="round"/>
<path d="M1244.8 400.746V443.748" stroke="#3F4248" stroke-width="0.277435" stroke-linecap="round"/>
<path d="M1308.11 393.81H1351.11" stroke="#3F4248" stroke-width="0.277435" stroke-linecap="round"/>
<path d="M1301.67 400.746V443.748" stroke="#3F4248" stroke-width="0.277435" stroke-linecap="round"/>
<path d="M0 451.122H43.0024" stroke="#3F4248" stroke-width="0.277435" stroke-linecap="round"/>
<path d="M56.874 451.122H99.8764" stroke="#3F4248" stroke-width="0.277435" stroke-linecap="round"/>
<path d="M50.4395 458.059L50.4395 501.061" stroke="#3F4248" stroke-width="0.277435" stroke-linecap="round"/>
<path d="M113.749 451.122H156.751" stroke="#3F4248" stroke-width="0.277435" stroke-linecap="round"/>
<path d="M107.312 458.059V501.061" stroke="#3F4248" stroke-width="0.277435" stroke-linecap="round"/>
<path d="M170.623 451.122H213.625" stroke="#3F4248" stroke-width="0.277435" stroke-linecap="round"/>
<path d="M164.187 458.059V501.061" stroke="#3F4248" stroke-width="0.277435" stroke-linecap="round"/>
<path d="M227.498 451.122H270.5" stroke="#3F4248" stroke-width="0.277435" stroke-linecap="round"/>
<path d="M221.062 458.059V501.061" stroke="#3F4248" stroke-width="0.277435" stroke-linecap="round"/>
<path d="M284.372 451.122H327.374" stroke="#3F4248" stroke-width="0.277435" stroke-linecap="round"/>
<path d="M277.937 458.059V501.061" stroke="#3F4248" stroke-width="0.277435" stroke-linecap="round"/>
<path d="M341.246 451.122H384.248" stroke="#3F4248" stroke-width="0.277435" stroke-linecap="round"/>
<path d="M334.81 458.059V501.061" stroke="#3F4248" stroke-width="0.277435" stroke-linecap="round"/>
<path d="M398.12 451.122H441.122" stroke="#3F4248" stroke-width="0.277435" stroke-linecap="round"/>
<path d="M391.685 458.059V501.061" stroke="#3F4248" stroke-width="0.277435" stroke-linecap="round"/>
<path d="M454.994 451.122H497.997" stroke="#3F4248" stroke-width="0.277435" stroke-linecap="round"/>
<path d="M448.559 458.059V501.061" stroke="#3F4248" stroke-width="0.277435" stroke-linecap="round"/>
<path d="M511.868 451.122H554.871" stroke="#3F4248" stroke-width="0.277435" stroke-linecap="round"/>
<path d="M505.433 458.059V501.061" stroke="#3F4248" stroke-width="0.277435" stroke-linecap="round"/>
<path d="M568.744 451.122H611.747" stroke="#3F4248" stroke-width="0.277435" stroke-linecap="round"/>
<path d="M562.307 458.059V501.061" stroke="#3F4248" stroke-width="0.277435" stroke-linecap="round"/>
<path d="M625.617 451.122H668.62" stroke="#3F4248" stroke-width="0.277435" stroke-linecap="round"/>
<path d="M619.182 458.059V501.061" stroke="#3F4248" stroke-width="0.277435" stroke-linecap="round"/>
<path d="M682.492 451.122H725.495" stroke="#3F4248" stroke-width="0.277435" stroke-linecap="round"/>
<path d="M676.056 458.059V501.061" stroke="#3F4248" stroke-width="0.277435" stroke-linecap="round"/>
<path d="M739.366 451.122H782.369" stroke="#3F4248" stroke-width="0.277435" stroke-linecap="round"/>
<path d="M732.93 458.059V501.061" stroke="#3F4248" stroke-width="0.277435" stroke-linecap="round"/>
<path d="M796.241 451.122H839.244" stroke="#3F4248" stroke-width="0.277435" stroke-linecap="round"/>
<path d="M789.805 458.059V501.061" stroke="#3F4248" stroke-width="0.277435" stroke-linecap="round"/>
<path d="M853.117 451.122H896.12" stroke="#3F4248" stroke-width="0.277435" stroke-linecap="round"/>
<path d="M846.68 458.059V501.061" stroke="#3F4248" stroke-width="0.277435" stroke-linecap="round"/>
<path d="M909.99 451.122H952.993" stroke="#3F4248" stroke-width="0.277435" stroke-linecap="round"/>
<path d="M903.555 458.059V501.061" stroke="#3F4248" stroke-width="0.277435" stroke-linecap="round"/>
<path d="M966.865 451.122H1009.87" stroke="#3F4248" stroke-width="0.277435" stroke-linecap="round"/>
<path d="M960.429 458.059V501.061" stroke="#3F4248" stroke-width="0.277435" stroke-linecap="round"/>
<path d="M1023.74 451.122H1066.74" stroke="#3F4248" stroke-width="0.277435" stroke-linecap="round"/>
<path d="M1017.3 458.059V501.061" stroke="#3F4248" stroke-width="0.277435" stroke-linecap="round"/>
<path d="M1080.61 451.122H1123.62" stroke="#3F4248" stroke-width="0.277435" stroke-linecap="round"/>
<path d="M1074.18 458.059V501.061" stroke="#3F4248" stroke-width="0.277435" stroke-linecap="round"/>
<path d="M1137.49 451.122H1180.49" stroke="#3F4248" stroke-width="0.277435" stroke-linecap="round"/>
<path d="M1131.05 458.059V501.061" stroke="#3F4248" stroke-width="0.277435" stroke-linecap="round"/>
<path d="M1194.36 451.122H1237.37" stroke="#3F4248" stroke-width="0.277435" stroke-linecap="round"/>
<path d="M1187.93 458.059V501.061" stroke="#3F4248" stroke-width="0.277435" stroke-linecap="round"/>
<path d="M1251.24 451.122H1294.24" stroke="#3F4248" stroke-width="0.277435" stroke-linecap="round"/>
<path d="M1244.8 458.059V501.061" stroke="#3F4248" stroke-width="0.277435" stroke-linecap="round"/>
<path d="M1308.11 451.122H1351.11" stroke="#3F4248" stroke-width="0.277435" stroke-linecap="round"/>
<path d="M1301.67 458.059V501.061" stroke="#3F4248" stroke-width="0.277435" stroke-linecap="round"/>
</g>
<defs>
<clipPath id="clip0_480_4064">
<rect width="1650" height="506" fill="white"/>
</clipPath>
</defs>
</svg>
