<svg width="78" height="19" viewBox="0 0 78 19" fill="none" xmlns="http://www.w3.org/2000/svg">
<path fill-rule="evenodd" clip-rule="evenodd" d="M29.8738 5.89686V9.83956C29.8738 11.3575 30.2126 12.5095 30.8903 13.2956C31.5815 14.0817 32.5573 14.4747 33.8178 14.4747C34.6038 14.4747 35.2883 14.2985 35.8711 13.9462C36.4674 13.5938 36.9214 13.1194 37.2331 12.5231L37.4364 14.2308H39.7337V5.2162L37.1315 6.0836V9.35165C37.1315 10.2733 36.8943 10.9916 36.42 11.5066C35.9592 12.0216 35.3696 12.2791 34.6513 12.2791C33.8923 12.2791 33.3366 12.0487 32.9842 11.5879C32.6319 11.1271 32.4557 10.463 32.4557 9.59561V5.03624L29.8738 5.89686ZM73.0396 3.9033C73.2587 3.9033 73.4725 3.91559 73.6808 3.94018V4.84774L75.1485 4.35851C75.2962 4.42899 75.4403 4.50765 75.5808 4.59451C76.3262 5.05531 76.9158 5.68553 77.3494 6.48517C77.7831 7.2848 78 8.19286 78 9.20934C78 10.2258 77.7831 11.1339 77.3494 11.9335C76.9158 12.7196 76.3262 13.343 75.5808 13.8038C74.8354 14.2511 73.9883 14.4747 73.0396 14.4747C72.2806 14.4747 71.6165 14.3324 71.0473 14.0478C70.478 13.7632 70.0172 13.3634 69.6648 12.8484V18.7033H67.0626V4.14725H69.3802L69.6648 5.59066C69.9901 5.14341 70.417 4.75037 70.9456 4.41154C71.4877 4.07271 72.1857 3.9033 73.0396 3.9033ZM0 0V14.2308H2.6022V4.41154L6.56648 12.1978H8.61978L12.5841 4.41154V14.2308H15.1863V0H12.0962L7.62362 9.02637L3.09011 0H0ZM20.0819 13.8242C20.868 14.2579 21.7693 14.4747 22.7857 14.4747C23.5989 14.4747 24.324 14.3256 24.961 14.0275C25.6116 13.7293 26.1537 13.3227 26.5874 12.8077C27.0346 12.2791 27.3531 11.6963 27.5429 11.0593H24.9C24.7238 11.4388 24.4528 11.7506 24.0868 11.9945C23.7345 12.2249 23.294 12.3401 22.7654 12.3401C22.0607 12.3401 21.4575 12.1165 20.9561 11.6692C20.4682 11.222 20.1971 10.6053 20.1429 9.81923H27.8072C27.8207 9.64304 27.8275 9.47363 27.8275 9.31099C27.8411 9.14835 27.8478 8.99249 27.8478 8.84341C27.8478 7.9218 27.631 7.08828 27.1973 6.34286C26.7771 5.58388 26.1876 4.98755 25.4286 4.55385C24.6696 4.12015 23.7955 3.9033 22.8061 3.9033C21.7489 3.9033 20.8273 4.1337 20.0412 4.59451C19.2687 5.04176 18.6588 5.67198 18.2116 6.48517C17.7779 7.29835 17.561 8.22674 17.561 9.27033C17.561 10.3004 17.7846 11.2084 18.2319 11.9945C18.6791 12.7806 19.2958 13.3905 20.0819 13.8242ZM21.1187 6.56648C21.6066 6.20055 22.1691 6.01758 22.8061 6.01758C23.4702 6.01758 24.0259 6.2141 24.4731 6.60714C24.9204 7.00018 25.1643 7.52876 25.205 8.19286H20.1835C20.3191 7.46099 20.6308 6.91887 21.1187 6.56648ZM44.6006 13.8038C45.3867 14.2511 46.2676 14.4747 47.2434 14.4747C48.2057 14.4747 49.0799 14.2511 49.866 13.8038C50.6521 13.3566 51.2687 12.7399 51.716 11.9538C52.1768 11.1542 52.4072 10.2326 52.4072 9.18901C52.4072 8.14542 52.1768 7.23059 51.716 6.44451C51.2687 5.64487 50.6521 5.02143 49.866 4.57418C49.0934 4.12692 48.226 3.9033 47.2638 3.9033C46.2879 3.9033 45.407 4.12692 44.6209 4.57418C43.8484 5.02143 43.2317 5.64487 42.7709 6.44451C42.3101 7.23059 42.0797 8.14542 42.0797 9.18901C42.0797 10.2326 42.3033 11.1542 42.7506 11.9538C43.2114 12.7399 43.8281 13.3566 44.6006 13.8038ZM49.0121 11.4659C48.5107 11.9674 47.9211 12.2181 47.2434 12.2181C46.5658 12.2181 45.9762 11.9674 45.4748 11.4659C44.9868 10.9509 44.7429 10.1919 44.7429 9.18901C44.7429 8.18608 44.9868 7.43388 45.4748 6.93242C45.9762 6.4174 46.5726 6.15989 47.2638 6.15989C47.9279 6.15989 48.5107 6.4174 49.0121 6.93242C49.5136 7.43388 49.7643 8.18608 49.7643 9.18901C49.7643 10.1919 49.5136 10.9509 49.0121 11.4659ZM59.5723 14.4747C58.5964 14.4747 57.7155 14.2511 56.9294 13.8038C56.1569 13.3566 55.5402 12.7399 55.0794 11.9538C54.6322 11.1542 54.4085 10.2326 54.4085 9.18901C54.4085 8.14542 54.6389 7.23059 55.0997 6.44451C55.5606 5.64487 56.1772 5.02143 56.9497 4.57418C57.7358 4.12692 58.6168 3.9033 59.5926 3.9033C60.5549 3.9033 61.4223 4.12692 62.1948 4.57418C62.9809 5.02143 63.5975 5.64487 64.0448 6.44451C64.5056 7.23059 64.736 8.14542 64.736 9.18901C64.736 10.2326 64.5056 11.1542 64.0448 11.9538C63.5975 12.7399 62.9809 13.3566 62.1948 13.8038C61.4087 14.2511 60.5345 14.4747 59.5723 14.4747ZM59.5723 12.2181C60.2499 12.2181 60.8395 11.9674 61.341 11.4659C61.8424 10.9509 62.0931 10.1919 62.0931 9.18901C62.0931 8.18608 61.8424 7.43388 61.341 6.93242C60.8395 6.4174 60.2567 6.15989 59.5926 6.15989C58.9014 6.15989 58.3051 6.4174 57.8036 6.93242C57.3157 7.43388 57.0717 8.18608 57.0717 9.18901C57.0717 10.1919 57.3157 10.9509 57.8036 11.4659C58.3051 11.9674 58.8946 12.2181 59.5723 12.2181ZM74.544 11.3643C74.0018 11.92 73.3174 12.1978 72.4907 12.1978C71.6504 12.1978 70.9592 11.92 70.417 11.3643C69.8885 10.7951 69.6242 10.07 69.6242 9.18901C69.6242 8.30806 69.8885 7.58975 70.417 7.03407C70.9592 6.46484 71.6504 6.18022 72.4907 6.18022C73.3174 6.18022 74.0018 6.46484 74.544 7.03407C75.0861 7.6033 75.3571 8.32839 75.3571 9.20934C75.3571 10.0903 75.0861 10.8086 74.544 11.3643Z" fill="#5200FF"/>
</svg>
