<svg version="1.2" xmlns="http://www.w3.org/2000/svg" viewBox="0 0 70 70" width="70" height="70"><defs><clipPath clipPathUnits="userSpaceOnUse" id="cp1"><path d="m0 0h70v70h-70z"/></clipPath></defs><style></style><g clip-path="url(#cp1)"><path fill-rule="evenodd" d="m52.5 35c0 9.7-7.8 17.5-17.5 17.5-9.7 0-17.5-7.8-17.5-17.5 0-9.7 7.8-17.5 17.5-17.5 9.7 0 17.5 7.8 17.5 17.5zm-7.2-10.3c-5.7-5.6-14.9-5.6-20.6 0-5.6 5.7-5.6 14.9 0 20.6 5.7 5.6 14.9 5.6 20.6 0 5.6-5.7 5.6-14.9 0-20.6zm-6.1 3.9c0.6-0.6 1.6-0.6 2.2 0 0.6 0.6 0.6 1.6 0 2.1l-4.3 4.3 4.3 4.3c0.6 0.5 0.6 1.5 0 2.1-0.6 0.6-1.6 0.6-2.2 0l-4.2-4.3-4.2 4.3c-0.6 0.6-1.6 0.6-2.2 0-0.6-0.6-0.6-1.6 0-2.1l4.3-4.3-4.3-4.3c-0.6-0.5-0.6-1.5 0-2.1 0.6-0.6 1.6-0.6 2.2 0l4.2 4.3z"/><path fill-rule="evenodd" d="m0 35c0-19.3 15.7-35 35-35 19.3 0 35 15.7 35 35 0 19.3-15.7 35-35 35-19.3 0-35-15.7-35-35zm35 33.5c18.5 0 33.5-15 33.5-33.5 0-18.5-15-33.5-33.5-33.5-18.5 0-33.5 15-33.5 33.5 0 18.5 15 33.5 33.5 33.5z"/></g></svg>