<svg version="1.2" xmlns="http://www.w3.org/2000/svg" viewBox="0 0 70 70" width="70" height="70"><defs><clipPath clipPathUnits="userSpaceOnUse" id="cp1"><path d="m0 0h70v70h-70z"/></clipPath></defs><style></style><g clip-path="url(#cp1)"><path fill-rule="evenodd" d="m35 52.5c-9.6 0-17.5-7.9-17.5-17.5 0-9.7 7.9-17.5 17.5-17.5 9.6 0 17.5 7.8 17.5 17.5 0 9.6-7.9 17.5-17.5 17.5zm0-32.7c-8.4 0-15.2 6.8-15.2 15.2 0 8.4 6.8 15.2 15.2 15.2 8.4 0 15.2-6.8 15.2-15.2 0-8.4-6.8-15.2-15.2-15.2zm-1.5 20.7c-0.2 0.2-0.5 0.3-0.8 0.3-0.3 0-0.6-0.1-0.9-0.3l-4.6-4.7c-0.5-0.4-0.5-1.2 0-1.6 0.4-0.5 1.2-0.5 1.6 0l3.9 3.8 9.6-9.7c0.5-0.4 1.2-0.4 1.7 0 0.4 0.5 0.4 1.2 0 1.7l-10.5 10.5z"/><path fill-rule="evenodd" d="m0 35c0-19.3 15.7-35 35-35 19.3 0 35 15.7 35 35 0 19.3-15.7 35-35 35-19.3 0-35-15.7-35-35zm35 33.5c18.5 0 33.5-15 33.5-33.5 0-18.5-15-33.5-33.5-33.5-18.5 0-33.5 15-33.5 33.5 0 18.5 15 33.5 33.5 33.5z"/></g></svg>