<svg width="90" height="90" viewBox="0 0 90 90" fill="none" xmlns="http://www.w3.org/2000/svg">
<circle cx="45" cy="45" r="45" fill="#4CCE5F"/>
<path d="M62.5044 37.1881H55.25V30.6637C55.25 30.2987 54.9579 30 54.5862 30H30.1748C27.8717 30 26 31.8717 26 34.1748V54.3386C26 57.458 28.542 60 31.6615 60H60.1614C61.8207 60 63.1681 58.6527 63.1681 56.9934V51.5178H57.5663C55.7345 51.5178 54.2477 50.031 54.2477 48.1992V48.073C54.2477 46.2412 55.7345 44.7545 57.5663 44.7545H63.1681V37.8518C63.1681 37.4867 62.8694 37.1881 62.5044 37.1881ZM53.9225 37.1881H30.1748C28.6018 37.1881 27.3274 35.9138 27.3274 34.3407V34.1748C27.3274 32.6019 28.6018 31.3274 30.1748 31.3274H53.9225V37.1881Z" fill="white"/>
<path d="M57.5663 46.082C56.4712 46.082 55.5752 46.9714 55.5752 48.0732V48.1993C55.5752 49.301 56.4712 50.1905 57.5663 50.1905H63.1681V46.082H57.5663Z" fill="white"/>
</svg>
